<svg xmlns="http://www.w3.org/2000/svg" viewBox="0 0 137.74 341.82"><defs><style>.cls-1{fill:#a65f37;}.cls-2{fill:#2b8c32;}.cls-3{fill:#2bb232;}.cls-4{fill:#0468bf;}.cls-5{fill:#0442bf;}</style></defs><g id="Layer_2" data-name="Layer 2"><g id="Layer_1-2" data-name="Layer 1"><path class="cls-1" d="M137.74,163.59a68.88,68.88,0,0,0-68.87,68.87v28.27c0-35.11,30.84-63.57,68.87-63.57h0V163.59Z"/><path class="cls-1" d="M68.87,260.73V232.46A68.87,68.87,0,0,0,0,163.59H0v33.57H0C38,197.16,68.87,225.62,68.87,260.73Z"/><path class="cls-1" d="M137.74,201.88a68.87,68.87,0,0,0-68.87,68.87v27.09c0-35.11,30.84-63.57,68.87-63.57h0V201.88Z"/><path class="cls-1" d="M68.87,297.84V270.75A68.86,68.86,0,0,0,0,201.88H0v32.39H0C38,234.27,68.87,262.73,68.87,297.84Z"/><path class="cls-2" d="M137.74,213.13v-4c0,1.34-.06,2.67-.15,4Z"/><path class="cls-2" d="M0,158.87H0c34.61,0,63.24,23.57,68.13,54.26h1.48c4.89-30.69,33.52-54.26,68.13-54.26h0V101.74a64.79,64.79,0,0,0-13.12-39L83.19,7.08a18,18,0,0,0-28.64,0L13.13,62.78A64.81,64.81,0,0,0,0,101.74H0Z"/><path class="cls-1" d="M0,239H0a68.87,68.87,0,0,1,68.87,68.87V321a0,0,0,0,1,0,0h0A68.87,68.87,0,0,1,0,252.16V239A0,0,0,0,1,0,239Z"/><path class="cls-1" d="M137.74,239h0a0,0,0,0,1,0,0v13.17A68.87,68.87,0,0,1,68.87,321h0a0,0,0,0,1,0,0V307.86A68.87,68.87,0,0,1,137.74,239Z" transform="translate(206.61 560.02) rotate(-180)"/><path class="cls-1" d="M64.87,150.64h8a0,0,0,0,1,0,0V337.82a4,4,0,0,1-4,4h0a4,4,0,0,1-4-4V150.64A0,0,0,0,1,64.87,150.64Z"/><path class="cls-3" d="M66.9,167.39c.65,0,1.31,0,2,0h0q1,0,2,0c43.09-1.36,66.74-51,41.63-86L81.73,38.45a15.81,15.81,0,0,0-25.71,0L25.26,81.36C.15,116.41,23.81,166,66.9,167.39Z"/><path class="cls-4" d="M67.06,158.84c.6,0,1.21,0,1.81,0h0c.61,0,1.21,0,1.81,0,31.08-1.25,47.95-37.12,29.83-62.4L80.28,68.21a14,14,0,0,0-22.82,0L37.23,96.44C19.11,121.72,36,157.59,67.06,158.84Z"/><path class="cls-5" d="M86.18,141.91a7.5,7.5,0,0,1-12.8-3.51c-1-4.44-2.66-7.31-4.51-7.31s-3.48,2.87-4.51,7.31a7.5,7.5,0,0,1-12.8,3.51,24.28,24.28,0,0,1-2-30.74l.57-.8a23.08,23.08,0,0,1,37.52,0l.57.8A24.28,24.28,0,0,1,86.18,141.91Z"/></g></g></svg>