<?xml version="1.0" encoding="iso-8859-1"?>
<!-- Generator: Adobe Illustrator 19.0.0, SVG Export Plug-In . SVG Version: 6.00 Build 0)  -->
<svg xmlns="http://www.w3.org/2000/svg" xmlns:xlink="http://www.w3.org/1999/xlink" version="1.1" id="Layer_1" x="0px" y="0px" viewBox="0 0 512 512" style="enable-background:new 0 0 512 512;" xml:space="preserve" width="512" height="512">
<g id="XMLID_2217_">
	<g id="XMLID_2218_">
		<g id="XMLID_2219_">
			<g id="XMLID_2220_">
				<g id="XMLID_2221_">
					<path id="XMLID_2222_" style="fill:#9EAFC6;" d="M492.729,29.6v404.71c0,12.21-9.9,22.1-22.11,22.1h-305.68       c-12.21,0-22.1-9.89-22.1-22.1V29.6c0-12.2,9.89-22.1,22.1-22.1h305.68C482.83,7.5,492.729,17.4,492.729,29.6z"/>
					<path id="XMLID_2223_" style="fill:#8590A8;" d="M361.03,235v221.41h-196.09c-12.21,0-22.1-9.89-22.1-22.1V223h206.19       C355.659,223,361.03,228.37,361.03,235z"/>
					<rect id="XMLID_2224_" x="185.709" y="60.89" style="fill:#57D3D0;" width="264.15" height="73.19"/>
					<polygon id="XMLID_2225_" style="fill:#8CE5E1;" points="369.12,60.89 295.939,134.08 233.359,134.08 306.55,60.89      "/>
					<polygon id="XMLID_2226_" style="fill:#8CE5E1;" points="425.99,60.89 352.79,134.08 314.65,134.08 387.849,60.89      "/>
					<g id="XMLID_2227_">
						<path id="XMLID_2835_" style="fill:#ED6294;" d="M219.909,210.263h-18.437c-7.855,0-14.223-6.368-14.223-14.223v0        c0-7.855,6.368-14.223,14.223-14.223h18.437c7.855,0,14.223,6.368,14.223,14.223v0        C234.133,203.895,227.765,210.263,219.909,210.263z"/>
						<path id="XMLID_2834_" style="fill:#ED6294;" d="M291.303,210.263h-18.437c-7.855,0-14.223-6.368-14.223-14.223v0        c0-7.855,6.368-14.223,14.223-14.223h18.437c7.855,0,14.223,6.368,14.223,14.223v0        C305.527,203.895,299.159,210.263,291.303,210.263z"/>
						<path id="XMLID_2833_" style="fill:#ED6294;" d="M362.697,210.263h-18.437c-7.855,0-14.223-6.368-14.223-14.223v0        c0-7.855,6.368-14.223,14.223-14.223h18.437c7.855,0,14.223,6.368,14.223,14.223v0        C376.921,203.895,370.552,210.263,362.697,210.263z"/>
						<path id="XMLID_2832_" style="fill:#ED6294;" d="M434.091,210.263h-18.437c-7.855,0-14.223-6.368-14.223-14.223v0        c0-7.855,6.368-14.223,14.223-14.223h18.437c7.855,0,14.223,6.368,14.223,14.223v0        C448.314,203.895,441.946,210.263,434.091,210.263z"/>
					</g>
					<g id="XMLID_2228_">
						<path id="XMLID_2830_" style="fill:#697491;" d="M219.909,282.666h-18.437c-7.855,0-14.223-6.368-14.223-14.223v0        c0-7.855,6.368-14.223,14.223-14.223h18.437c7.855,0,14.223,6.368,14.223,14.223v0        C234.133,276.298,227.765,282.666,219.909,282.666z"/>
						<path id="XMLID_2829_" style="fill:#697491;" d="M291.303,282.666h-18.437c-7.855,0-14.223-6.368-14.223-14.223v0        c0-7.855,6.368-14.223,14.223-14.223h18.437c7.855,0,14.223,6.368,14.223,14.223v0        C305.527,276.298,299.159,282.666,291.303,282.666z"/>
						<path id="XMLID_2229_" style="fill:#697491;" d="M376.919,268.44c0,3.93-1.59,7.49-4.17,10.06        c-2.57,2.58-6.13,4.17-10.05,4.17h-18.44c-7.85,0-14.22-6.37-14.22-14.23c0-3.92,1.59-7.48,4.17-10.05        c2.57-2.58,6.13-4.17,10.05-4.17h18.44C370.55,254.22,376.919,260.59,376.919,268.44z"/>
						<path id="XMLID_2230_" style="fill:#515B7C;" d="M361.03,254.22v28.45h-16.77c-7.85,0-14.22-6.37-14.22-14.23        c0-3.92,1.59-7.48,4.17-10.05c2.57-2.58,6.13-4.17,10.05-4.17H361.03z"/>
						<path id="XMLID_2826_" style="fill:#697491;" d="M434.091,282.666h-18.437c-7.855,0-14.223-6.368-14.223-14.223v0        c0-7.855,6.368-14.223,14.223-14.223h18.437c7.855,0,14.223,6.368,14.223,14.223v0        C448.314,276.298,441.946,282.666,434.091,282.666z"/>
					</g>
					<g id="XMLID_2231_">
						<path id="XMLID_2824_" style="fill:#697491;" d="M219.909,340.846h-18.437c-7.855,0-14.223-6.368-14.223-14.223v0        c0-7.855,6.368-14.223,14.223-14.223h18.437c7.855,0,14.223,6.368,14.223,14.223v0        C234.133,334.478,227.765,340.846,219.909,340.846z"/>
						<path id="XMLID_2823_" style="fill:#697491;" d="M291.303,340.846h-18.437c-7.855,0-14.223-6.368-14.223-14.223v0        c0-7.855,6.368-14.223,14.223-14.223h18.437c7.855,0,14.223,6.368,14.223,14.223v0        C305.527,334.478,299.159,340.846,291.303,340.846z"/>
						<path id="XMLID_2232_" style="fill:#697491;" d="M376.919,326.62c0,3.93-1.59,7.49-4.17,10.06        c-2.57,2.58-6.13,4.17-10.05,4.17h-18.44c-7.85,0-14.22-6.37-14.22-14.23c0-3.92,1.59-7.48,4.17-10.05        c2.57-2.58,6.13-4.17,10.05-4.17h18.44C370.55,312.4,376.919,318.77,376.919,326.62z"/>
						<path id="XMLID_2233_" style="fill:#515B7C;" d="M344.26,312.4h16.77v28.45h-16.77c-7.85,0-14.22-6.37-14.22-14.23        c0-3.92,1.59-7.48,4.17-10.05C336.78,313.99,340.34,312.4,344.26,312.4z"/>
						<path id="XMLID_2820_" style="fill:#697491;" d="M434.091,340.846h-18.437c-7.855,0-14.223-6.368-14.223-14.223v0        c0-7.855,6.368-14.223,14.223-14.223h18.437c7.855,0,14.223,6.368,14.223,14.223v0        C448.314,334.478,441.946,340.846,434.091,340.846z"/>
					</g>
					<g id="XMLID_2234_">
						<path id="XMLID_2818_" style="fill:#697491;" d="M219.909,399.026h-18.437c-7.855,0-14.223-6.368-14.223-14.223v0        c0-7.855,6.368-14.223,14.223-14.223h18.437c7.855,0,14.223,6.368,14.223,14.223v0        C234.133,392.658,227.765,399.026,219.909,399.026z"/>
						<path id="XMLID_2817_" style="fill:#697491;" d="M291.303,399.026h-18.437c-7.855,0-14.223-6.368-14.223-14.223v0        c0-7.855,6.368-14.223,14.223-14.223h18.437c7.855,0,14.223,6.368,14.223,14.223v0        C305.527,392.658,299.159,399.026,291.303,399.026z"/>
						<path id="XMLID_2235_" style="fill:#697491;" d="M376.919,384.8c0,3.93-1.59,7.49-4.17,10.06c-2.57,2.58-6.13,4.17-10.05,4.17        h-18.44c-7.85,0-14.22-6.37-14.22-14.23c0-3.92,1.59-7.48,4.17-10.05c2.57-2.58,6.13-4.17,10.05-4.17h18.44        C370.55,370.58,376.919,376.95,376.919,384.8z"/>
						<path id="XMLID_2236_" style="fill:#515B7C;" d="M344.26,370.58h16.77v28.45h-16.77c-7.85,0-14.22-6.37-14.22-14.23        c0-3.92,1.59-7.48,4.17-10.05C336.78,372.17,340.34,370.58,344.26,370.58z"/>
						<path id="XMLID_2814_" style="fill:#697491;" d="M434.091,399.026h-18.437c-7.855,0-14.223-6.368-14.223-14.223v0        c0-7.855,6.368-14.223,14.223-14.223h18.437c7.855,0,14.223,6.368,14.223,14.223v0        C448.314,392.658,441.946,399.026,434.091,399.026z"/>
					</g>
				</g>
			</g>
			<g id="XMLID_2237_">
				<g id="XMLID_2238_">
					<rect id="XMLID_2239_" x="19.272" y="382.392" style="fill:#00BDC6;" width="329.758" height="122.108"/>
					<rect id="XMLID_2240_" x="19.272" y="234.996" style="fill:#57D3D0;" width="329.758" height="172.627"/>
					<g id="XMLID_2241_">
						<g id="XMLID_2242_">
							<path id="XMLID_2243_" style="fill:#FFD243;" d="M247.384,320.8c0,19.185-8.546,36.375-22.034,47.973         c-11.063,9.511-25.463,15.261-41.199,15.261s-30.137-5.75-41.199-15.261c-13.488-11.597-22.034-28.787-22.034-47.973         s8.546-36.375,22.034-47.973c11.063-9.511,25.463-15.261,41.199-15.261s30.137,5.75,41.199,15.261         C238.838,284.425,247.384,301.615,247.384,320.8z"/>
						</g>
					</g>
					<g id="XMLID_2244_">
						<g id="XMLID_2245_">
							<g id="XMLID_2246_">
								<circle id="XMLID_2805_" style="fill:#FFD243;" cx="307.37" cy="366.064" r="14.251"/>
							</g>
						</g>
						<g id="XMLID_2247_">
							<g id="XMLID_2248_">
								<circle id="XMLID_2802_" style="fill:#FFD243;" cx="60.933" cy="274.803" r="14.251"/>
							</g>
						</g>
					</g>
				</g>
			</g>
		</g>
	</g>
	<g id="XMLID_2249_">
		<path id="XMLID_2250_" d="M492.727,362.589c-4.143,0-7.5,3.358-7.5,7.5v64.222c0,8.053-6.552,14.604-14.604,14.604H356.53v-41.292    v-1.097h6.167c11.979,0,21.724-9.745,21.724-21.723c0-11.979-9.745-21.724-21.724-21.724h-6.167v-14.733h6.167    c11.979,0,21.724-9.745,21.724-21.724c0-11.978-9.745-21.723-21.724-21.723h-6.167v-14.733h6.167    c11.979,0,21.724-9.745,21.724-21.724c0-11.978-9.745-21.723-21.724-21.723h-6.167v-11.723c0-4.142-3.357-7.5-7.5-7.5H150.337    V119.089c0-4.142-3.357-7.5-7.5-7.5s-7.5,3.358-7.5,7.5v108.408H19.273c-4.143,0-7.5,3.358-7.5,7.5v81.914    c0,4.142,3.357,7.5,7.5,7.5s7.5-3.358,7.5-7.5v-74.414H341.53v139.896v17.729H26.773v-17.729v-31.305c0-4.142-3.357-7.5-7.5-7.5    s-7.5,3.358-7.5,7.5v31.305v25.229V504.5c0,4.142,3.357,7.5,7.5,7.5H349.03c4.143,0,7.5-3.358,7.5-7.5v-40.585h114.093    c16.324,0,29.604-13.28,29.604-29.604v-64.222C500.227,365.947,496.87,362.589,492.727,362.589z M362.697,378.079    c3.707,0,6.724,3.016,6.724,6.724c0,3.707-3.017,6.723-6.724,6.723h-6.167v-9.132v-4.314H362.697z M362.697,319.899    c3.707,0,6.724,3.016,6.724,6.724c0,3.707-3.017,6.723-6.724,6.723h-6.167v-13.447H362.697z M362.697,261.72    c3.707,0,6.724,3.016,6.724,6.723c0,3.708-3.017,6.724-6.724,6.724h-6.167V261.72H362.697z M26.773,497v-81.877H341.53V497H26.773    z"/>
		<path id="XMLID_2256_" d="M470.623,0H164.941c-16.323,0-29.604,13.28-29.604,29.604v55.308c0,4.142,3.357,7.5,7.5,7.5    s7.5-3.358,7.5-7.5V29.604c0-8.052,6.551-14.604,14.604-14.604h305.682c8.053,0,14.604,6.551,14.604,14.604v306.308    c0,4.142,3.357,7.5,7.5,7.5s7.5-3.358,7.5-7.5V29.604C500.227,13.28,486.947,0,470.623,0z"/>
		<path id="XMLID_2257_" d="M457.358,60.889c0-4.142-3.357-7.5-7.5-7.5H185.706c-4.143,0-7.5,3.358-7.5,7.5v73.189    c0,4.142,3.357,7.5,7.5,7.5h264.152c4.143,0,7.5-3.358,7.5-7.5V60.889z M442.358,126.578H193.206V68.389h249.152V126.578z"/>
		<path id="XMLID_2260_" d="M201.473,174.316c-11.979,0-21.724,9.745-21.724,21.724c0,11.978,9.745,21.723,21.724,21.723h18.437    c11.979,0,21.724-9.745,21.724-21.723c0-11.979-9.745-21.724-21.724-21.724H201.473z M226.633,196.04    c0,3.707-3.017,6.723-6.724,6.723h-18.437c-3.707,0-6.724-3.016-6.724-6.723c0-3.708,3.017-6.724,6.724-6.724h18.437    C223.617,189.316,226.633,192.333,226.633,196.04z"/>
		<path id="XMLID_2263_" d="M272.867,174.316c-11.979,0-21.724,9.745-21.724,21.724c0,11.978,9.745,21.723,21.724,21.723h18.437    c11.979,0,21.724-9.745,21.724-21.723c0-11.979-9.745-21.724-21.724-21.724H272.867z M298.027,196.04    c0,3.707-3.017,6.723-6.724,6.723h-18.437c-3.707,0-6.724-3.016-6.724-6.723c0-3.708,3.017-6.724,6.724-6.724h18.437    C295.01,189.316,298.027,192.333,298.027,196.04z"/>
		<path id="XMLID_2266_" d="M344.26,174.316c-11.978,0-21.723,9.745-21.723,21.724c0,11.978,9.745,21.723,21.723,21.723h18.437    c11.979,0,21.724-9.745,21.724-21.723c0-11.979-9.745-21.724-21.724-21.724H344.26z M369.42,196.04    c0,3.707-3.017,6.723-6.724,6.723H344.26c-3.707,0-6.723-3.016-6.723-6.723c0-3.708,3.016-6.724,6.723-6.724h18.437    C366.404,189.316,369.42,192.333,369.42,196.04z"/>
		<path id="XMLID_2269_" d="M434.091,174.316h-18.437c-11.979,0-21.724,9.745-21.724,21.724c0,11.978,9.745,21.723,21.724,21.723    h18.437c11.978,0,21.723-9.745,21.723-21.723C455.814,184.062,446.069,174.316,434.091,174.316z M434.091,202.763h-18.437    c-3.707,0-6.724-3.016-6.724-6.723c0-3.708,3.017-6.724,6.724-6.724h18.437c3.707,0,6.723,3.016,6.723,6.724    C440.814,199.747,437.798,202.763,434.091,202.763z"/>
		<path id="XMLID_2272_" d="M434.091,246.72h-18.437c-11.979,0-21.724,9.745-21.724,21.723c0,11.979,9.745,21.724,21.724,21.724    h18.437c11.978,0,21.723-9.745,21.723-21.724C455.814,256.465,446.069,246.72,434.091,246.72z M434.091,275.167h-18.437    c-3.707,0-6.724-3.016-6.724-6.724c0-3.707,3.017-6.723,6.724-6.723h18.437c3.707,0,6.723,3.016,6.723,6.723    C440.814,272.15,437.798,275.167,434.091,275.167z"/>
		<path id="XMLID_2275_" d="M434.091,304.899h-18.437c-11.979,0-21.724,9.745-21.724,21.724c0,11.978,9.745,21.723,21.724,21.723    h18.437c11.978,0,21.723-9.745,21.723-21.724C455.814,314.645,446.069,304.899,434.091,304.899z M434.091,333.346h-18.437    c-3.707,0-6.724-3.016-6.724-6.724c0-3.707,3.017-6.723,6.724-6.723h18.437c3.707,0,6.723,3.016,6.723,6.724    C440.814,330.33,437.798,333.346,434.091,333.346z"/>
		<path id="XMLID_2278_" d="M434.091,363.079h-18.437c-11.979,0-21.724,9.745-21.724,21.724c0,11.978,9.745,21.723,21.724,21.723    h18.437c11.978,0,21.723-9.745,21.723-21.723C455.814,372.824,446.069,363.079,434.091,363.079z M434.091,391.526h-18.437    c-3.707,0-6.724-3.016-6.724-6.723c0-3.708,3.017-6.724,6.724-6.724h18.437c3.707,0,6.723,3.016,6.723,6.724    C440.814,388.51,437.798,391.526,434.091,391.526z"/>
		<path id="XMLID_2281_" d="M327.254,449.25H41.048c-4.143,0-7.5,3.358-7.5,7.5s3.357,7.5,7.5,7.5h286.206    c4.143,0,7.5-3.358,7.5-7.5S331.397,449.25,327.254,449.25z"/>
		<path id="XMLID_2282_" d="M327.254,472.085H41.048c-4.143,0-7.5,3.358-7.5,7.5s3.357,7.5,7.5,7.5h286.206    c4.143,0,7.5-3.358,7.5-7.5S331.397,472.085,327.254,472.085z"/>
		<path id="XMLID_2283_" d="M327.254,426.416H41.048c-4.143,0-7.5,3.358-7.5,7.5s3.357,7.5,7.5,7.5h286.206    c4.143,0,7.5-3.358,7.5-7.5S331.397,426.416,327.254,426.416z"/>
		<path id="XMLID_2284_" d="M254.884,320.8c0-39.002-31.73-70.733-70.733-70.733c-39.002,0-70.732,31.73-70.732,70.733    s31.73,70.733,70.732,70.733C223.154,391.533,254.884,359.802,254.884,320.8z M128.418,320.8    c0-30.731,25.002-55.733,55.732-55.733c30.731,0,55.733,25.001,55.733,55.733s-25.002,55.733-55.733,55.733    C153.42,376.533,128.418,351.531,128.418,320.8z"/>
		<path id="XMLID_2287_" d="M191.567,348.943v-0.652c6.107-2.92,10.346-9.141,10.346-16.35c0-9.729-7.701-17.692-17.328-18.114    c-0.171-0.012-0.344-0.018-0.518-0.018c-1.727,0-3.132-1.405-3.132-3.131s1.405-3.131,3.132-3.131    c0.945,0,1.832,0.422,2.432,1.158c2.619,3.209,7.341,3.69,10.553,1.072c3.21-2.618,3.689-7.342,1.072-10.552    c-1.798-2.204-4.046-3.915-6.557-5.055v-0.494c0-4.142-3.357-7.5-7.5-7.5s-7.5,3.358-7.5,7.5v0.514    c-6.261,2.86-10.632,9.167-10.632,16.488c0,9.729,7.701,17.692,17.328,18.114c0.171,0.012,0.344,0.018,0.518,0.018    c1.727,0,3.132,1.405,3.132,3.131s-1.405,3.131-3.132,3.131c-0.945,0-1.832-0.422-2.432-1.158    c-2.619-3.209-7.341-3.69-10.553-1.072c-3.21,2.618-3.689,7.342-1.072,10.552c1.866,2.287,4.217,4.043,6.843,5.181v0.367    c0,4.142,3.357,7.5,7.5,7.5S191.567,353.085,191.567,348.943z"/>
		<path id="XMLID_2288_" d="M329.121,366.063c0-11.993-9.758-21.75-21.751-21.75s-21.75,9.757-21.75,21.75    c0,11.994,9.757,21.751,21.75,21.751S329.121,378.057,329.121,366.063z M300.62,366.063c0-3.722,3.028-6.75,6.75-6.75    c3.723,0,6.751,3.028,6.751,6.75c0,3.723-3.028,6.751-6.751,6.751C303.648,372.814,300.62,369.786,300.62,366.063z"/>
		<path id="XMLID_2291_" d="M82.683,274.803c0-11.993-9.757-21.75-21.75-21.75s-21.751,9.757-21.751,21.75    c0,11.994,9.758,21.751,21.751,21.751S82.683,286.796,82.683,274.803z M54.182,274.803c0-3.722,3.028-6.75,6.751-6.75    c3.722,0,6.75,3.028,6.75,6.75c0,3.723-3.028,6.751-6.75,6.751C57.21,281.554,54.182,278.525,54.182,274.803z"/>
		<path id="XMLID_2294_" d="M85.456,209.172h25.358c4.143,0,7.5-3.358,7.5-7.5s-3.357-7.5-7.5-7.5H85.456    c-4.143,0-7.5,3.358-7.5,7.5S81.313,209.172,85.456,209.172z"/>
		<path id="XMLID_2295_" d="M85.456,185.932h25.358c4.143,0,7.5-3.358,7.5-7.5s-3.357-7.5-7.5-7.5H85.456    c-4.143,0-7.5,3.358-7.5,7.5S81.313,185.932,85.456,185.932z"/>
		<path id="XMLID_2296_" d="M110.727,160.148l0.1,0c0.013,0,0.025,0,0.038,0c4.124,0,7.429-3.334,7.449-7.463    c0.021-4.142-3.371-7.517-7.513-7.537c-0.013,0-0.025,0-0.038,0c-4.125,0-7.479,3.334-7.499,7.463    C103.244,156.753,106.585,160.127,110.727,160.148z"/>
	</g>
</g>















</svg>
